<svg width="942" height="480" viewBox="0 0 942 480" fill="none" xmlns="http://www.w3.org/2000/svg">
<path d="M858.12 347.745C908.254 225.644 904.998 36.0999 700.289 24.474C633.336 20.6707 565.214 40.4628 503.087 58.5249C451.646 73.4802 385.699 95.4536 369.662 142.612C363.363 161.126 361.549 194.894 328.673 192.954C241.329 187.806 139.836 141.537 81.6955 221.373C31.7266 289.984 66.161 388.143 134.912 443H779.622C813.315 416.867 841.906 387.23 858.12 347.745Z" fill="#F9F9F9"/>
<g opacity="0.29">
<path d="M564.418 197.682H385.878V59.5449H531.5C544.126 72.1828 551.778 79.8479 564.418 92.5V197.682Z" fill="#AAB4BB"/>
<path opacity="0.29" d="M381.967 61.1904H350.663" stroke="#C9C8C3" stroke-width="2.0753" stroke-miterlimit="10"/>
<path opacity="0.29" d="M386.856 55.3181V24" stroke="#C9C8C3" stroke-width="2.0753" stroke-miterlimit="10"/>
<path d="M532 60V92.311H564.338" fill="#E7EDF2"/>
</g>
<path d="M191.976 253.709L344.768 246.957L391.319 450.965L153.02 452.255L128.731 335.578C120.497 294.416 150.526 255.538 191.976 253.709Z" fill="#0F455E"/>
<path d="M198.211 223.355L205.467 251.794" stroke="#122832" stroke-width="5.9175" stroke-miterlimit="10"/>
<path d="M262.349 223.355L269.605 251.794" stroke="#122832" stroke-width="5.9175" stroke-miterlimit="10"/>
<path d="M178.287 228.007H304.168L277.214 149.854H162.968C153.36 149.854 146.629 159.329 149.76 168.407L167.715 220.462C169.274 224.972 173.525 228.007 178.287 228.007Z" fill="#0F455E"/>
<path d="M441.853 355.024C462.316 341.436 498.821 318.118 498.821 318.118C498.821 318.118 563.341 276.218 562.137 272.63C560.932 269.041 539.165 278.431 539.165 278.431C540.866 275.112 560.762 263.269 559.968 261.113C559.175 258.971 533.922 272.8 532.803 271.751C531.683 270.701 558.013 256.46 556.468 253.623C554.938 250.773 528.608 265.013 527.134 264.332C525.66 263.652 551.948 247.978 548.617 245.539C545.287 243.113 508.882 270.701 505.608 270.077C502.335 269.453 513.757 253.155 513.162 245.936C512.566 238.716 482.751 282.913 482.751 282.913C475.906 288.885 422 312.047 422 312.047L441.853 355.024Z" fill="#FFCEA8"/>
<path d="M509.18 268.772L499.614 286.459C499.614 286.459 504.064 268.474 502.93 267.07L509.18 268.772Z" fill="#B6613B"/>
<path d="M390.384 314.671C390.384 314.671 322.689 170.576 280.46 225.44C235.056 284.431 316.624 338.103 358.216 382.101C369.269 393.803 387.507 394.881 399.907 384.612L497.97 318.855L481.362 284.87L390.384 314.671Z" fill="#FFCEA8"/>
<path d="M317.488 342.911C335.584 322.415 360.426 295.225 380.109 276.332C357.308 237.439 309.58 187.625 280.473 225.44C247.795 267.892 280.87 307.593 317.488 342.911Z" fill="#1B87C6"/>
<path d="M176.926 268.46C174.602 232.107 236.855 202.746 236.855 202.746L260.025 187.995L261.414 191.867L300.058 228.022L306.463 211.299L306.095 205.044L312.429 211.696C317.092 212.462 336.123 238.447 341.112 250.546C348.707 268.956 351.017 293.098 351.74 307.579C368.958 448.667 370.275 453.064 370.275 453.064H197.928C197.928 453.064 191.395 494.212 176.926 268.46Z" fill="#1B87C6"/>
<path d="M212.439 216.405C214.21 215.228 326.147 453.064 326.147 453.064H187.413C187.413 453.064 175.679 348.883 177.394 264.886C177.394 264.9 179.42 238.291 212.439 216.405Z" fill="#10699D"/>
<path d="M338.334 111.6C341.607 104.933 340.502 94.3237 340.502 94.3237C340.502 94.3237 367.994 84.9481 361.418 69.2181C354.857 53.4881 322.562 62.268 322.562 62.268C322.562 62.268 334.791 43.5027 310.757 58.7646C301.206 64.8353 299.605 66.3246 292.193 63.0198C284.782 59.7149 273.006 63.9559 269.576 70.1826C267.451 74.0407 268.754 77.459 265.863 77.1611C255.108 76.0406 250.077 87.2743 257.46 111.089C257.46 111.089 253.733 123.231 260.974 142.166C263.596 149.003 272.51 151.301 272.51 151.301" fill="#0E162E"/>
<path d="M338.419 96.2527C338.419 96.2527 346.567 151.442 329.775 172.718C321.159 181.073 310.984 177.413 304.465 177.158C304.21 174.803 305.486 196.32 306.633 215.625C306.633 215.667 306.619 215.724 306.619 215.767C306.279 219.086 301.829 220.149 296.586 219.837C288.551 219.383 281.055 215.582 275.571 209.682L259.628 192.547L268.528 152.435C268.528 152.435 270.299 143.386 269.945 140.478C263.469 139.67 258.976 129.769 261.669 123.33C264.248 117.188 274.281 116.791 275.84 122.578C277.427 128.45 282.344 128.294 282.954 123.429C283.308 120.621 281.182 97.5718 297.791 94.8485C307.753 95.5435 310.063 102.465 315.136 102.735C320.209 103.004 324.9 92.3096 327.394 95.1889C335.259 104.323 338.419 96.2527 338.419 96.2527Z" fill="#FFCEA8"/>
<path d="M264.602 129.188C268.074 117.486 275.741 127.103 275.741 127.103L264.602 129.188Z" fill="#B6613B"/>
<path d="M306.478 177.243L296.444 176.349L304.437 196.845L306.478 177.243Z" fill="#B6613B"/>
<path d="M336.859 133.904C336.902 132.15 336.253 130.711 335.408 130.69C334.563 130.669 333.842 132.074 333.799 133.829C333.756 135.583 334.406 137.022 335.251 137.043C336.096 137.064 336.816 135.659 336.859 133.904Z" fill="#0E162E"/>
<path d="M322.264 133.145C322.221 134.89 322.873 136.336 323.709 136.351C324.56 136.365 325.268 134.975 325.311 133.216C325.353 131.457 324.701 130.025 323.865 130.01C323.029 129.996 322.306 131.386 322.264 133.145Z" fill="#0E162E"/>
<path d="M334.38 151.201L320.663 150.109C320.663 150.109 322.108 156.704 328.117 157.187C332.949 157.57 334.38 151.201 334.38 151.201Z" fill="white"/>
<path d="M246.704 435.49C271.107 432.71 314.909 427.618 314.909 427.618C314.909 427.618 402.656 429.462 403.223 425.717C403.79 421.987 349.968 393.449 349.968 393.449C341.154 395.647 248.575 388.172 248.575 388.172L246.704 435.49Z" fill="#FFCEA8"/>
<path d="M238.102 262.304C238.698 250.304 255.235 209.71 231.881 204.817C207.266 199.654 134.498 274.261 151.206 398.839C155.004 427.107 171.329 450.44 220.29 441.475L312.826 427.816L310.02 392.286L220.332 371.719C220.346 371.705 236.345 297.934 238.102 262.304Z" fill="#FFCEA8"/>
<path d="M246.506 341.791C250.247 306.26 253.039 282.275 253.974 263.24C254.569 251.241 255.221 209.71 231.881 204.817C213.983 201.058 165.235 247.368 149.335 316.543C175.778 326.203 219.694 333.21 246.506 341.791Z" fill="#1B87C6"/>
<path opacity="0.33" d="M322.08 140.237H314.442C311.126 140.237 308.447 137.542 308.447 134.237V127.075C308.447 123.755 311.14 121.075 314.442 121.075H322.08C325.396 121.075 328.074 123.77 328.074 127.075V134.237C328.074 137.556 325.396 140.237 322.08 140.237Z" fill="white"/>
<path opacity="0.33" d="M312.047 139.854C313.081 138.223 314.073 136.578 315.023 134.89C317.574 130.337 319.912 125.585 322.448 121.061H313.719C310.814 121.061 308.447 124.124 308.447 127.897V133.386C308.447 136.422 309.964 138.946 312.047 139.854Z" fill="white"/>
<path d="M322.08 140.237H314.442C311.126 140.237 308.447 137.542 308.447 134.237V127.075C308.447 123.755 311.14 121.075 314.442 121.075H322.08C325.396 121.075 328.074 123.77 328.074 127.075V134.237C328.074 137.556 325.396 140.237 322.08 140.237Z" stroke="#0E162E" stroke-width="2.1559" stroke-miterlimit="10"/>
<path opacity="0.33" d="M341.041 139.968H337.073C334.522 139.968 332.467 137.897 332.467 135.358V126.081C332.467 123.528 334.536 121.472 337.073 121.472H341.041C343.591 121.472 345.646 123.543 345.646 126.081V135.358C345.66 137.897 343.591 139.968 341.041 139.968Z" fill="white"/>
<path opacity="0.33" d="M334.068 138.861C337.059 133.173 340.049 127.486 343.025 121.798C342.585 121.585 342.103 121.443 341.607 121.443H336.52C334.281 121.443 332.467 123.798 332.467 126.706V134.705C332.467 136.407 333.091 137.911 334.068 138.861Z" fill="white"/>
<path d="M341.041 139.968H337.073C334.522 139.968 332.467 137.897 332.467 135.358V126.081C332.467 123.528 334.536 121.472 337.073 121.472H341.041C343.591 121.472 345.646 123.543 345.646 126.081V135.358C345.66 137.897 343.591 139.968 341.041 139.968Z" stroke="#0E162E" stroke-width="1.6574" stroke-miterlimit="10"/>
<path d="M328.074 132.379H332.085" stroke="#0E162E" stroke-width="2.1559" stroke-miterlimit="10"/>
<path d="M279.255 125.67L308.249 126.068" stroke="#0E162E" stroke-width="2.1559" stroke-miterlimit="10"/>
<path d="M449.605 422.597H324.815V437.249H449.605V422.597Z" fill="#FFA557"/>
<path d="M413.781 422.597C407.503 427.349 401.338 432.242 395.259 437.249H449.591V422.597H413.781Z" fill="#DF7112"/>
<path d="M605.585 437.235H408.906L456.379 301.48H653.058L605.585 437.235Z" fill="#FFA557"/>
<path d="M412.434 421.59H610.091" stroke="white" stroke-width="1.3108" stroke-miterlimit="10"/>
<path d="M550 367.5C550 360.597 546.194 355 541.5 355C536.806 355 533 360.597 533 367.5C533 374.403 536.806 380 541.5 380C546.194 380 550 374.403 550 367.5Z" fill="white"/>
<path d="M872 434.823H69V455.943H872V434.823Z" fill="#0C4982"/>
<path d="M638.926 63.5776C608.331 63.5776 594 86.0513 594 86.0513C594 86.0513 606.02 108.514 638.926 108.514C671.821 108.514 683.851 86.0513 683.851 86.0513C683.851 86.0513 669.531 63.5776 638.926 63.5776Z" fill="#E7EDF2"/>
<path d="M654.143 86.0514C654.143 94.4534 647.328 101.268 638.926 101.268C630.524 101.268 623.71 94.4534 623.71 86.0514C623.71 77.6494 630.524 70.835 638.926 70.835C647.339 70.835 654.143 77.6494 654.143 86.0514Z" fill="#35B5FF"/>
<path d="M638.591 32V52.7566" stroke="#35B5FF" stroke-width="2" stroke-linecap="round" stroke-linejoin="round"/>
<path d="M597.045 45.9639L610.588 61.6555" stroke="#35B5FF" stroke-width="2" stroke-linecap="round" stroke-linejoin="round"/>
<path d="M680.136 45.9639L666.583 61.6555" stroke="#35B5FF" stroke-width="2" stroke-linecap="round" stroke-linejoin="round"/>
<path d="M115.303 116.038C115.303 104.105 102.139 94.4282 85.9179 94.4282C69.6863 94.4282 56.5217 104.105 56.5217 116.038C56.5217 127.259 68.1527 136.481 83.0344 137.54C89.784 144.473 102.095 150.175 109.968 151.007C103.975 147.043 100.854 139.883 99.374 135.229C108.834 131.643 115.303 124.408 115.303 116.038Z" fill="#1B87C6"/>
<path d="M54.6101 70C34.3935 70 18 82.333 18 97.5386C18 108.025 25.7972 117.15 37.277 121.794C35.1711 126.935 31.6505 133.058 26.0024 136.805C33.7024 135.985 44.9554 131.276 53.217 125.045C53.6814 125.056 54.1457 125.066 54.6101 125.066C74.8267 125.066 91.2203 112.733 91.2203 97.5278C91.2203 82.3222 74.8375 70 54.6101 70Z" fill="#FFA557"/>
<path d="M40.5059 97.4521C40.5059 100.346 38.1624 102.69 35.279 102.69C32.3847 102.69 30.052 100.346 30.052 97.4521C30.052 94.5578 32.3955 92.2251 35.279 92.2251C38.1624 92.2143 40.5059 94.5578 40.5059 97.4521Z" fill="#3381E0"/>
<path d="M60.2583 97.5708C60.2583 100.465 57.9147 102.808 55.0313 102.808C52.137 102.808 49.7936 100.465 49.7936 97.5708C49.7936 94.6873 52.137 92.333 55.0313 92.333C57.9147 92.3438 60.2583 94.6873 60.2583 97.5708Z" fill="#3381E0"/>
<path d="M80.0424 97.5708C80.0424 100.465 77.6989 102.808 74.8047 102.808C71.9104 102.808 69.5778 100.465 69.5778 97.5708C69.5778 94.6873 71.9212 92.333 74.8047 92.333C77.6989 92.3438 80.0424 94.6873 80.0424 97.5708Z" fill="#3381E0"/>
<path d="M158.561 435.604C143.214 435.604 130.771 423.15 130.771 407.789V368.84H186.364V407.789C186.364 423.15 173.922 435.604 158.561 435.604Z" fill="#FFA557"/>
<path d="M152.241 419.902C141.258 411.916 134.187 400.257 130.771 387.435V407.775C130.771 423.136 143.214 435.589 158.561 435.589C165.845 435.589 172.463 432.767 177.408 428.171C168.977 428.37 160.247 425.732 152.241 419.902Z" fill="#FFA557"/>
<path d="M192.988 417.737C204.284 415.101 211.307 403.799 208.674 392.493C206.041 381.187 194.749 374.157 183.453 376.793C172.157 379.428 165.134 390.73 167.767 402.036C170.4 413.343 181.692 420.372 192.988 417.737Z" stroke="#FFA557" stroke-width="2.6215" stroke-miterlimit="10"/>
<g opacity="0.61">
<g opacity="0.61">
<path opacity="0.61" d="M156.067 361.464C152.198 356.457 148.839 351.053 146.034 345.38C144.177 341.607 142.533 337.607 142.406 333.394C142.278 329.196 143.922 324.728 147.422 322.416C152.637 318.983 160.247 321.721 163.591 326.983C166.95 332.245 166.794 339.082 165.079 345.082C163.365 351.082 160.247 356.571 157.881 362.344" fill="white"/>
</g>
<g opacity="0.61">
<path opacity="0.61" d="M166.326 362.67C167.361 360.613 168.509 358.429 170.507 357.28C172.505 356.131 175.608 356.585 176.402 358.755C177.096 360.627 175.679 362.755 173.851 363.563C172.023 364.372 169.94 364.216 167.956 364.06" fill="white"/>
</g>
</g>
<path d="M593.481 229.362L559.173 170.896C558.947 170.57 558.436 170.74 558.436 171.137V220.994C558.436 221.136 558.521 221.263 558.649 221.334C559.981 222.043 560.633 223.859 559.386 225.547C559.358 225.589 559.315 225.618 559.287 225.646C557.119 227.235 554.766 225.731 554.766 223.66C554.766 222.653 555.333 221.774 556.155 221.334C556.297 221.263 556.382 221.121 556.382 220.965V171.123C556.382 170.726 555.872 170.57 555.645 170.882L521.209 228.142C521.11 228.284 521.11 228.469 521.195 228.611L538.214 264.68H576.604L593.496 229.816C593.581 229.689 593.581 229.504 593.481 229.362Z" fill="#10699D"/>
<path d="M574.705 282.949H540.113C538.895 282.949 537.903 281.956 537.903 280.736V266.595C537.903 266.354 538.101 266.155 538.342 266.155H576.476C576.717 266.155 576.915 266.354 576.915 266.595V280.736C576.915 281.956 575.924 282.949 574.705 282.949Z" fill="#35B5FF"/>
<path d="M504.657 105.891C504.657 135.124 528.337 158.826 557.544 158.826" stroke="#35B5FF" stroke-width="1.4965" stroke-miterlimit="10"/>
<path d="M610.444 212.483C610.444 183.25 586.764 159.549 557.558 159.549" stroke="#35B5FF" stroke-width="1.4965" stroke-miterlimit="10"/>
<path d="M508.54 102.714H500.789V110.472H508.54V102.714Z" fill="#35B5FF"/>
<path d="M613.618 207.179H605.867V214.937H613.618V207.179Z" fill="#35B5FF"/>
<path d="M488.403 159.18H628.044" stroke="#35B5FF" stroke-width="1.4965" stroke-miterlimit="10"/>
<path d="M561.044 156.003H553.292V163.762H561.044V156.003Z" fill="#35B5FF"/>
<path d="M492.102 156.003H484.35V163.762H492.102V156.003Z" fill="#35B5FF"/>
<path d="M630.326 156.003H622.574V163.762H630.326V156.003Z" fill="#35B5FF"/>
<path opacity="0.22" d="M154.308 97.3919L226.464 98.0287C229.02 98.057 231.347 99.3447 232.429 101.354L239.017 113.595C239.377 114.26 240.525 114.062 240.557 113.326L241.278 98.156L241.999 37.5052C242.065 31.576 236.559 26.708 229.692 26.6514L155.16 26.0005C148.294 25.9439 142.656 30.6986 142.591 36.6278L142.001 86.5381C141.919 92.4674 147.442 97.3211 154.308 97.3919Z" fill="#FFA557"/>
<path d="M190.365 84.2123L176.972 84.0962C176.463 84.0962 176.069 83.7332 176.069 83.2831L176.316 62.5344C176.316 62.0843 176.726 61.7358 177.235 61.7358L190.628 61.852C191.136 61.852 191.53 62.215 191.53 62.6651L191.284 83.4138C191.284 83.8639 190.874 84.2123 190.365 84.2123Z" fill="#FFA557"/>
<path d="M173.509 84.0527L159.706 83.922C159.312 83.922 159 83.6317 159 83.2832L159.148 71.0721C159.148 70.7236 159.476 70.4478 159.87 70.4478L173.673 70.5784C174.067 70.5784 174.379 70.8688 174.379 71.2173L174.231 83.4284C174.215 83.7914 173.903 84.0672 173.509 84.0527Z" fill="#FFA557"/>
<path d="M207.287 84.3725L193.894 84.2418C193.385 84.2418 192.991 83.8788 192.991 83.4287L193.369 50.6287C193.369 50.1786 193.779 49.8301 194.288 49.8301L207.681 49.9462C208.19 49.9462 208.584 50.3092 208.584 50.7593L208.206 83.5594C208.19 84.0095 207.779 84.3725 207.287 84.3725Z" fill="#FFA557"/>
<path d="M222.173 84.5029L211.341 84.4013C210.536 84.3868 209.896 83.806 209.896 83.0945L210.389 41.2777C210.405 40.5663 211.062 40 211.866 40L222.698 40.1016C223.503 40.1162 224.143 40.6969 224.143 41.4084L223.65 83.2252C223.634 83.9366 222.977 84.5174 222.173 84.5029Z" fill="#FFA557"/>
<path d="M730.571 307.586C747.821 307.586 761.804 293.59 761.804 276.325C761.804 259.06 747.821 245.063 730.571 245.063C713.322 245.063 699.338 259.06 699.338 276.325C699.338 293.59 713.322 307.586 730.571 307.586Z" fill="#0C4982"/>
<path d="M715.348 288.883C721.578 272.783 713.59 254.676 697.504 248.44C681.419 242.204 663.329 250.2 657.098 266.299C650.868 282.399 658.857 300.506 674.942 306.742C691.027 312.978 709.117 304.982 715.348 288.883Z" fill="#FFA557"/>
<path d="M714.238 346.501C731.262 343.716 742.807 327.645 740.024 310.606C737.242 293.567 721.186 282.012 704.163 284.797C687.139 287.582 675.595 303.652 678.377 320.691C681.159 337.73 697.215 349.285 714.238 346.501Z" fill="#35B5FF"/>
<path d="M804.176 356.875V360.592H800.463" stroke="#35B5FF" stroke-width="0.7707" stroke-miterlimit="10"/>
<path opacity="0.2" d="M793.037 360.591H618.38" stroke="#35B5FF" stroke-width="2" stroke-miterlimit="10" stroke-dasharray="5.24 5.24"/>
<path d="M614.667 360.592H610.954V356.875" stroke="#35B5FF" stroke-width="0.7707" stroke-miterlimit="10"/>
<path opacity="0.2" d="M610.954 349.783V239.886" stroke="#35B5FF" stroke-width="2" stroke-miterlimit="10" stroke-dasharray="5 5"/>
<path d="M610.954 236.34V232.624H614.667" stroke="#35B5FF" stroke-width="0.7707" stroke-miterlimit="10"/>
<path opacity="0.2" d="M622.092 232.624H796.75" stroke="#35B5FF" stroke-width="2" stroke-miterlimit="10" stroke-dasharray="5.24 5.24"/>
<path d="M800.463 232.624H804.176V236.34" stroke="#35B5FF" stroke-width="0.7707" stroke-miterlimit="10"/>
<path opacity="0.2" d="M804.176 243.432V353.329" stroke="#35B5FF" stroke-width="2" stroke-miterlimit="10" stroke-dasharray="5 5"/>
<path d="M617.586 229.575H608.545V238.624H617.586V229.575Z" fill="#35B5FF"/>
<path d="M808.229 229.575H799.187V238.624H808.229V229.575Z" fill="#35B5FF"/>
<path d="M617.586 353.358H608.545V362.407H617.586V353.358Z" fill="#35B5FF"/>
<path d="M808.229 353.358H799.187V362.407H808.229V353.358Z" fill="#35B5FF"/>
<path d="M755.357 369.074L749.334 386.562C748.753 388.25 746.358 388.208 745.834 386.506L733.873 347.94C733.434 346.507 734.794 345.174 736.212 345.642L774.785 358.62C776.471 359.187 776.457 361.584 774.757 362.123L756.533 367.896C755.98 368.095 755.541 368.52 755.357 369.074Z" fill="#35B5FF"/>
<path d="M707.758 128.848C707.772 122.479 702.614 117.302 696.237 117.288C689.874 117.288 684.702 122.436 684.688 128.819C684.673 135.188 689.832 140.365 696.209 140.379C702.571 140.393 707.744 135.23 707.758 128.848Z" fill="#35B5FF"/>
<path d="M744.845 101.698L696.253 101.644L696.222 129.671L744.814 129.726L744.845 101.698Z" stroke="#0C4982" stroke-width="0.7707" stroke-miterlimit="10" stroke-dasharray="5.23 5.23"/>
<path d="M138.098 253.51C138.098 248.73 134.229 244.844 129.453 244.844C124.678 244.844 120.795 248.716 120.795 253.496C120.795 258.276 124.664 262.162 129.439 262.162C134.215 262.162 138.098 258.304 138.098 253.51Z" fill="#FFA557"/>
<path d="M131.998 187.971L98.6398 187.934L98.5666 253.463L131.925 253.501L131.998 187.971Z" stroke="#1B87C6" stroke-miterlimit="10" stroke-dasharray="5.23 5.23"/>
<path d="M827.591 39H771.64C764.671 39 759 44.6703 759 51.6316V179.784C759 186.754 764.671 192.416 771.64 192.416H827.591C834.56 192.416 840.222 186.754 840.222 179.784V51.6316C840.23 44.6624 834.56 39 827.591 39Z" fill="#97C5E0"/>
<path d="M840.222 56.6128H759V159.012H840.222V56.6128Z" fill="#E7EDF2"/>
<path d="M807.457 175.967C807.457 180.42 803.858 184.019 799.405 184.019C794.959 184.019 791.345 180.411 791.345 175.967C791.345 171.524 794.951 167.923 799.405 167.923C803.851 167.923 807.457 171.524 807.457 175.967Z" fill="white" stroke="#0C4982" stroke-width="2"/>
<path d="M774.958 137.708H824.074C827.171 137.708 829.681 135.198 829.681 132.101V78.3438H769.343V132.101C769.351 135.198 771.861 137.708 774.958 137.708Z" fill="white" stroke="#0C4982" stroke-width="2" stroke-linecap="round" stroke-linejoin="round"/>
<path d="M829.689 71.1055C829.689 68.009 827.178 65.4985 824.082 65.4985H774.965C771.869 65.4985 769.358 68.009 769.358 71.1055V78.3518H829.697V71.1055H829.689Z" fill="#35B5FF" stroke="#0C4982" stroke-width="2" stroke-linecap="round" stroke-linejoin="round"/>
<path d="M808.9 72.7604C808.9 74.1226 807.792 75.2313 806.429 75.2313C805.067 75.2313 803.959 74.1226 803.959 72.7604C803.959 71.3983 805.067 70.2896 806.429 70.2896C807.792 70.2896 808.9 71.3904 808.9 72.7604Z" fill="#0C4982"/>
<path d="M824.296 72.7604C824.296 74.1226 823.187 75.2313 821.825 75.2313C820.463 75.2313 819.354 74.1226 819.354 72.7604C819.354 71.3983 820.463 70.2896 821.825 70.2896C823.195 70.2896 824.296 71.3904 824.296 72.7604Z" fill="#0C4982"/>
<path d="M816.598 72.7604C816.598 74.1226 815.489 75.2313 814.127 75.2313C812.765 75.2313 811.656 74.1226 811.656 72.7604C811.656 71.3983 812.765 70.2896 814.127 70.2896C815.489 70.2896 816.598 71.3904 816.598 72.7604Z" fill="#0C4982"/>
<path d="M814.302 109.119C814.302 116.46 808.346 122.416 801.005 122.416C793.663 122.416 787.708 116.46 787.708 109.119C787.708 101.778 793.656 95.8223 801.005 95.8223C808.346 95.8223 814.302 101.778 814.302 109.119Z" fill="#FFA557" stroke="#0C4982" stroke-width="2" stroke-linecap="round" stroke-linejoin="round"/>
<path d="M800.007 106.3C800.007 103.987 798.13 102.11 795.817 102.11C795.572 102.11 795.326 102.134 795.089 102.174C795.318 101.651 795.453 101.081 795.453 100.471C795.453 98.1587 793.576 96.2817 791.264 96.2817C789.474 96.2817 787.945 97.4063 787.344 98.9823C786.742 97.4063 785.213 96.2817 783.423 96.2817C781.111 96.2817 779.234 98.1587 779.234 100.471C779.234 101.057 779.353 101.612 779.567 102.118C779.535 102.118 779.503 102.118 779.472 102.118C777.159 102.118 775.282 103.995 775.282 106.308C775.282 108.62 777.159 110.497 779.472 110.497H796.055V110.489C798.257 110.355 800.007 108.533 800.007 106.3Z" fill="#9DD6F8" stroke="#0C4982" stroke-width="2" stroke-linecap="round" stroke-linejoin="round"/>
<path d="M800.633 126.423V130.573" stroke="#0C4982" stroke-width="2" stroke-linecap="round" stroke-linejoin="round"/>
<path d="M800.633 87.6494V91.7992" stroke="#0C4982" stroke-width="2" stroke-linecap="round" stroke-linejoin="round"/>
<path d="M817.937 109.111H822.094" stroke="#0C4982" stroke-width="2" stroke-linecap="round" stroke-linejoin="round"/>
<path d="M812.868 96.8677L815.806 93.9375" stroke="#0C4982" stroke-width="2" stroke-linecap="round" stroke-linejoin="round"/>
<path d="M785.451 124.293L788.389 121.355" stroke="#0C4982" stroke-width="2" stroke-linecap="round" stroke-linejoin="round"/>
<path d="M815.806 124.285L812.868 121.354" stroke="#0C4982" stroke-width="2" stroke-linecap="round" stroke-linejoin="round"/>
</svg>
